<svg xmlns="http://www.w3.org/2000/svg" width="128" height="128" viewBox="0 0 128 128">
  <defs>
    <linearGradient id="g" x1="0" x2="1">
      <stop offset="0" stop-color="#34d399"/>
      <stop offset="1" stop-color="#10b981"/>
    </linearGradient>
  </defs>
  <rect width="128" height="128" rx="24" fill="url(#g)" />
  <g transform="translate(20,28)">
    <!-- simple chef hat -->
    <path d="M12 24c0-6.6 5.4-12 12-12 2.8 0 5.4 1 7.5 2.6C34.6 9.8 39 8 43.8 8c6.6 0 12 5.4 12 12 0 1.6-.3 3.2-.8 4.6C62 29.2 64 33 64 37.6 64 46 56.8 52 48 52H8c-5.6 0-8-4.4-8-10 0-6.6 5.4-12 12-12z" fill="#fff"/>
    <!-- face circle -->
    <circle cx="32" cy="40" r="10" fill="#fff8" />
    <!-- eyes -->
    <circle cx="28" cy="38" r="1.4" fill="#064e3b" />
    <circle cx="36" cy="38" r="1.4" fill="#064e3b" />
  </g>
</svg>